<?xml version="1.0" encoding="utf-8"?><svg viewBox="0 0 300 300" xmlns="http://www.w3.org/2000/svg" xmlns:xlink="http://www.w3.org/1999/xlink"><style>:root>svg{display:none}:root>svg:target{display:block}</style><svg fill="none" viewBox="0 0 7 7" id="arrow-down" xmlns="http://www.w3.org/2000/svg"><g clip-path="url(#aclip0)"><path d="M3.692 5.307l3.232-3.233a.27.27 0 00-.38-.38L3.502 4.734.46 1.693a.27.27 0 00-.381.381L3.31 5.307a.27.27 0 00.381 0z" fill="#fff"/></g><defs><clipPath id="aclip0"><path fill="#fff" transform="rotate(90 3.5 3.5)" d="M0 0h7v7H0z"/></clipPath></defs></svg><svg fill="none" viewBox="0 0 22 20" id="burger" xmlns="http://www.w3.org/2000/svg"><path stroke="#fff" stroke-width="2" stroke-linecap="round" d="M1 1h20M1 10h20M1 19h20"/></svg><svg viewBox="0 0 300 300" id="en-flag" xmlns="http://www.w3.org/2000/svg"><g stroke-width="8" stroke-linecap="round" stroke-linejoin="round" stroke-miterlimit="10"><path fill="#fff" stroke="#000" d="M34 94h240v120H34z"/><path fill="#f97da3" stroke="#000" d="M34 70h240v24H34zM34 118h240v24H34zM34 166h240v24H34zM34 214h240v24H34z"/><path fill="#288eea" stroke="#000" d="M154 70H34l.176 96H154z"/><path fill="none" stroke="#fff" d="M62 94v16M54 102h16M94 94v16M86 102h16M126 94v16M118 102h16M94 126v16M86 134h16M126 126v16M118 134h16M62 126v16M54 134h16"/></g></svg><svg fill="none" viewBox="0 0 175 175" id="play" xmlns="http://www.w3.org/2000/svg"><circle cx="86.5" cy="87.5" r="65.5" fill="url(#dpaint0_linear)"/><path d="M68.644 59.267l52.066 27.278-51.218 31.494-.848-58.772z" fill="#fff"/><circle cx="87.5" cy="87.5" r="87" stroke="#0C5E8D"/><defs><linearGradient id="dpaint0_linear" x1="48.5" y1="36.5" x2="126.5" y2="144.5" gradientUnits="userSpaceOnUse"><stop stop-color="#0792E1"/><stop offset="1" stop-color="#0F6FA6"/></linearGradient></defs></svg><svg viewBox="0 0 300 300" id="ru-flag" xmlns="http://www.w3.org/2000/svg"><g stroke="#000" stroke-width="8" stroke-linecap="round" stroke-linejoin="round" stroke-miterlimit="10"><path fill="#fff" d="M273.842 80H34.076l.114 48h239.734z"/><path fill="#288eea" d="M34.089 128l.124 53h239.698l-.089-53z"/><path fill="#ee5281" d="M34.225 228h239.664l-.081-48H34.111z"/></g></svg><svg fill="none" viewBox="0 0 14 13" id="search" xmlns="http://www.w3.org/2000/svg"><path d="M13.915 12.155L9.848 8.378c.771-.884 1.235-2.008 1.235-3.232C11.083 2.308 8.597 0 5.542 0 2.486 0 0 2.308 0 5.146c0 2.837 2.486 5.146 5.542 5.146a5.78 5.78 0 003.48-1.148l4.068 3.777a.308.308 0 00.412 0l.413-.383a.257.257 0 000-.383zM5.542 9.208c-2.413 0-4.375-1.822-4.375-4.062s1.962-4.063 4.375-4.063c2.412 0 4.375 1.823 4.375 4.063 0 2.24-1.963 4.062-4.375 4.062z" fill="#fff"/></svg><svg fill="none" viewBox="0 0 26 26" id="user" xmlns="http://www.w3.org/2000/svg"><g clip-path="url(#gclip0)" fill="#fff"><path d="M12.815 12.524c1.72 0 3.21-.617 4.428-1.834 1.217-1.218 1.834-2.707 1.834-4.428 0-1.72-.617-3.21-1.835-4.428C16.025.617 14.535 0 12.815 0c-1.721 0-3.21.617-4.428 1.834C7.17 3.052 6.552 4.542 6.552 6.262c0 1.72.618 3.21 1.835 4.428 1.218 1.217 2.707 1.834 4.428 1.834zM23.772 19.993a15.474 15.474 0 00-.21-1.643 12.934 12.934 0 00-.405-1.652 8.158 8.158 0 00-.679-1.54 5.81 5.81 0 00-1.024-1.335 4.513 4.513 0 00-1.47-.924 5.082 5.082 0 00-1.878-.34c-.266 0-.522.11-1.018.432-.305.199-.662.429-1.06.684-.34.216-.802.42-1.372.604-.556.18-1.12.271-1.678.271a5.454 5.454 0 01-1.678-.271c-.57-.184-1.03-.387-1.37-.604-.395-.252-.752-.482-1.062-.684-.495-.323-.752-.432-1.018-.432-.676 0-1.307.115-1.877.34a4.509 4.509 0 00-1.471.925c-.386.37-.73.818-1.024 1.334a8.176 8.176 0 00-.679 1.54 12.977 12.977 0 00-.404 1.652 15.412 15.412 0 00-.21 1.643 22.29 22.29 0 00-.052 1.536c0 1.357.431 2.456 1.282 3.266.84.8 1.952 1.205 3.304 1.205h12.52c1.351 0 2.463-.405 3.303-1.205.851-.81 1.283-1.909 1.283-3.267 0-.523-.018-1.04-.053-1.535z"/></g><defs><clipPath id="gclip0"><path fill="#fff" d="M0 0h26v26H0z"/></clipPath></defs></svg></svg>