<svg width="384" height="320" viewBox="0 0 384 320" fill="none" xmlns="http://www.w3.org/2000/svg">
<path d="M235.032 4.41598C228.64 -1.67202 218.504 -1.43202 212.416 4.96798C206.32 11.368 206.576 21.496 212.968 27.592L335.704 144H16C7.168 144 0 151.168 0 160C0 168.832 7.168 176 16 176H335.192L212.968 292.416C206.568 298.512 206.32 308.64 212.416 315.04C215.56 318.336 219.776 320 224 320C227.968 320 231.936 318.536 235.032 315.584L374.624 182.624C380.672 176.584 384 168.552 384 160C384 151.448 380.672 143.416 374.344 137.104L235.032 4.41598Z" fill="#E93314"/>
</svg>
