<svg width="458" height="276" viewBox="0 0 458 276" fill="none" xmlns="http://www.w3.org/2000/svg">
<line x1="40.3875" y1="1.26025e-08" x2="40.3874" y2="276" stroke="#212121" stroke-opacity="0.3"/>
<line y1="-0.5" x2="456.317" y2="-0.5" transform="matrix(-0.999998 0.00180502 -0.00314908 -0.999995 456.317 28.4956)" stroke="#212121" stroke-opacity="0.3"/>
<line x1="323.069" y1="1.26025e-08" x2="323.069" y2="276" stroke="#212121" stroke-opacity="0.3"/>
<line y1="-0.5" x2="456.317" y2="-0.5" transform="matrix(-0.999998 0.00180502 -0.00314908 -0.999995 456.83 191.327)" stroke="#212121" stroke-opacity="0.3"/>
<line x1="87.2119" y1="1.26025e-08" x2="87.2119" y2="276" stroke="#212121" stroke-opacity="0.3"/>
<line y1="-0.5" x2="456.317" y2="-0.5" transform="matrix(-0.999998 0.00180502 -0.00314908 -0.999995 456.402 55.6342)" stroke="#212121" stroke-opacity="0.3"/>
<line x1="369.893" y1="1.26025e-08" x2="369.893" y2="276" stroke="#212121" stroke-opacity="0.3"/>
<line y1="-0.5" x2="456.317" y2="-0.5" transform="matrix(-0.999998 0.00180502 -0.00314908 -0.999995 456.916 218.466)" stroke="#212121" stroke-opacity="0.3"/>
<line x1="135.771" y1="1.26025e-08" x2="135.771" y2="276" stroke="#212121" stroke-opacity="0.3"/>
<line y1="-0.5" x2="456.317" y2="-0.5" transform="matrix(-0.999998 0.00180502 -0.00314908 -0.999995 456.488 82.7727)" stroke="#212121" stroke-opacity="0.3"/>
<line x1="416.718" y1="1.26025e-08" x2="416.717" y2="276" stroke="#212121" stroke-opacity="0.3"/>
<line y1="-0.5" x2="456.317" y2="-0.5" transform="matrix(-0.999998 0.00180502 -0.00314908 -0.999995 457 245.604)" stroke="#212121" stroke-opacity="0.3"/>
<line x1="182.595" y1="1.26025e-08" x2="182.595" y2="276" stroke="#212121" stroke-opacity="0.3"/>
<line y1="-0.5" x2="456.317" y2="-0.5" transform="matrix(-0.999998 0.00180502 -0.00314908 -0.999995 456.573 109.911)" stroke="#212121" stroke-opacity="0.3"/>
<line x1="229.42" y1="1.26025e-08" x2="229.42" y2="276" stroke="#212121" stroke-opacity="0.3"/>
<line y1="-0.5" x2="456.317" y2="-0.5" transform="matrix(-0.999998 0.00180502 -0.00314908 -0.999995 456.659 137.05)" stroke="#212121" stroke-opacity="0.3"/>
<line x1="276.244" y1="1.26025e-08" x2="276.244" y2="276" stroke="#212121" stroke-opacity="0.3"/>
<line y1="-0.5" x2="456.317" y2="-0.5" transform="matrix(-0.999998 0.00180502 -0.00314908 -0.999995 456.744 164.188)" stroke="#212121" stroke-opacity="0.3"/>
</svg>
