<svg width="30" height="30" viewBox="0 0 30 30" fill="none" xmlns="http://www.w3.org/2000/svg">
<path d="M15 0C6.72913 0 0 6.72913 0 15C0 23.2709 6.72913 30 15 30C23.2709 30 30 23.2709 30 15C30 6.72913 23.2709 0 15 0ZM15 26.25C8.79639 26.25 3.75 21.2036 3.75 15C3.75 8.79639 8.79639 3.75 15 3.75C21.2036 3.75 26.25 8.79639 26.25 15C26.25 21.2036 21.2036 26.25 15 26.25Z" fill="#212121"/>
<path d="M18.75 9.37499C17.3028 9.37499 15.9968 9.9369 15 10.8348V5.625C11.8934 5.625 9.37499 8.14339 9.37499 11.25C9.37499 12.6972 9.9369 14.0032 10.8348 15H5.625C5.625 18.1066 8.14339 20.625 11.25 20.625C12.6972 20.625 14.0032 20.0631 15 19.1652V24.375C18.1066 24.375 20.625 21.8566 20.625 18.75C20.625 17.3028 20.0631 15.9968 19.1652 15H24.375C24.375 11.8934 21.8566 9.37499 18.75 9.37499ZM15 16.875C13.9644 16.875 13.125 16.0355 13.125 15C13.125 13.9644 13.9644 13.125 15 13.125C16.0356 13.125 16.875 13.9644 16.875 15C16.875 16.0355 16.0356 16.875 15 16.875Z" fill="#212121"/>
</svg>
