<svg width="13" height="13" viewBox="0 0 13 13" fill="none" xmlns="http://www.w3.org/2000/svg">
<path d="M6.5 0C2.91596 0 0 2.91596 0 6.5C0 10.084 2.91596 13 6.5 13C10.084 13 13 10.084 13 6.5C13 2.91596 10.084 0 6.5 0ZM6.5 11.375C3.81177 11.375 1.625 9.18823 1.625 6.5C1.625 3.81177 3.81177 1.625 6.5 1.625C9.18823 1.625 11.375 3.81177 11.375 6.5C11.375 9.18823 9.18823 11.375 6.5 11.375Z" fill="#212121"/>
<path d="M8.125 4.0625C7.49787 4.0625 6.93194 4.30599 6.5 4.69508V2.4375C5.1538 2.4375 4.0625 3.5288 4.0625 4.875C4.0625 5.50213 4.30599 6.06806 4.69508 6.5H2.4375C2.4375 7.8462 3.5288 8.9375 4.875 8.9375C5.50213 8.9375 6.06806 8.69401 6.5 8.30492V10.5625C7.8462 10.5625 8.9375 9.4712 8.9375 8.125C8.9375 7.49787 8.69401 6.93194 8.30492 6.5H10.5625C10.5625 5.1538 9.4712 4.0625 8.125 4.0625ZM6.5 7.3125C6.05125 7.3125 5.6875 6.9487 5.6875 6.5C5.6875 6.05125 6.05125 5.6875 6.5 5.6875C6.94875 5.6875 7.3125 6.05125 7.3125 6.5C7.3125 6.9487 6.94875 7.3125 6.5 7.3125Z" fill="#212121"/>
</svg>
