<svg width="458" height="276" viewBox="0 0 458 276" fill="none" xmlns="http://www.w3.org/2000/svg">
<line x1="41.1423" y1="1.26097e-08" x2="41.1423" y2="276" stroke="#FFD600" stroke-opacity="0.3"/>
<line y1="-0.5" x2="456.055" y2="-0.5" transform="matrix(-0.999998 0.00180606 -0.00314727 -0.999995 456.833 28.4956)" stroke="#FFD600" stroke-opacity="0.3"/>
<line x1="323.661" y1="1.26097e-08" x2="323.661" y2="276" stroke="#FFD600" stroke-opacity="0.3"/>
<line y1="-0.5" x2="456.055" y2="-0.5" transform="matrix(-0.999998 0.00180606 -0.00314727 -0.999995 457.345 191.327)" stroke="#FFD600" stroke-opacity="0.3"/>
<line x1="87.9395" y1="1.26097e-08" x2="87.9394" y2="276" stroke="#FFD600" stroke-opacity="0.3"/>
<line y1="-0.5" x2="456.055" y2="-0.5" transform="matrix(-0.999998 0.00180606 -0.00314727 -0.999995 456.918 55.6342)" stroke="#FFD600" stroke-opacity="0.3"/>
<line x1="370.458" y1="1.26097e-08" x2="370.458" y2="276" stroke="#FFD600" stroke-opacity="0.3"/>
<line y1="-0.5" x2="456.055" y2="-0.5" transform="matrix(-0.999998 0.00180606 -0.00314727 -0.999995 457.431 218.466)" stroke="#FFD600" stroke-opacity="0.3"/>
<line x1="136.471" y1="1.26097e-08" x2="136.471" y2="276" stroke="#FFD600" stroke-opacity="0.3"/>
<line y1="-0.5" x2="456.055" y2="-0.5" transform="matrix(-0.999998 0.00180606 -0.00314727 -0.999995 457.003 82.7727)" stroke="#FFD600" stroke-opacity="0.3"/>
<line x1="417.256" y1="1.26097e-08" x2="417.256" y2="276" stroke="#FFD600" stroke-opacity="0.3"/>
<line y1="-0.5" x2="456.055" y2="-0.5" transform="matrix(-0.999998 0.00180606 -0.00314727 -0.999995 457.515 245.604)" stroke="#FFD600" stroke-opacity="0.3"/>
<line x1="183.268" y1="1.26097e-08" x2="183.268" y2="276" stroke="#FFD600" stroke-opacity="0.3"/>
<line y1="-0.5" x2="456.055" y2="-0.5" transform="matrix(-0.999998 0.00180606 -0.00314727 -0.999995 457.089 109.911)" stroke="#FFD600" stroke-opacity="0.3"/>
<line x1="230.066" y1="1.26097e-08" x2="230.066" y2="276" stroke="#FFD600" stroke-opacity="0.3"/>
<line y1="-0.5" x2="456.055" y2="-0.5" transform="matrix(-0.999998 0.00180606 -0.00314727 -0.999995 457.174 137.05)" stroke="#FFD600" stroke-opacity="0.3"/>
<line x1="276.863" y1="1.26097e-08" x2="276.863" y2="276" stroke="#FFD600" stroke-opacity="0.3"/>
<line y1="-0.5" x2="456.055" y2="-0.5" transform="matrix(-0.999998 0.00180606 -0.00314727 -0.999995 457.26 164.188)" stroke="#FFD600" stroke-opacity="0.3"/>
</svg>
